<?xml version="1.0" encoding="UTF-8"?>
<svg width="72px" height="44px" viewBox="0 0 72 44" version="1.1" xmlns="http://www.w3.org/2000/svg" xmlns:xlink="http://www.w3.org/1999/xlink">
    <!-- Generator: Sketch 48.2 (47327) - http://www.bohemiancoding.com/sketch -->
    <title>Group 2</title>
    <desc>Created with Sketch.</desc>
    <defs></defs>
    <g id="Page-1" stroke="none" stroke-width="1" fill="none" fill-rule="evenodd">
        <g id="Group-2" fill="#E25B64" fill-rule="nonzero">
            <path d="M53.6875,2.84375 C50.742303,2.922974 47.811166,3.013239 44.875,3.125 C42.390047,3.571796 41.331817,6.606226 42.59375,8.65625 L46.1875,17.8125 L33.75,28.09375 C30.426088,25.526554 27.188583,22.821435 23.8125,20.34375 C21.655477,19.201184 19.222866,20.446672 17.90625,22.25 C14.608118,25.821421 11.253521,29.327096 8,32.9375 C6.330179,34.814508 6.217738,34.381846 4.84375,34.40625 C1.3006,34.2166 -0.8859954,38.91739 1.5,41.53125 C3.339912,43.805955 6.438112,42.953949 8.96875,43.125 C18.52754,43.09792 28.068585,43.16019 37.625,43.0625 C41.089972,42.781977 43.317452,39.823045 45.9375,37.90625 C50.012708,34.489537 54.173402,31.172736 58.1875,27.6875 C59.30164,26.56677 60.414602,27.175949 61.5625,26.96875 C64.070729,26.849744 66.614701,27.069837 69.09375,26.6875 C71.655289,25.942677 72.335113,22.760055 71.1875,20.59375 L68.78125,13.75 C67.071259,15.44614 64.664243,16.5 62,16.5 C61.989499,16.5 61.979243,16.500032 61.96875,16.5 L63.0625,19.59375 C61.997154,19.60759 60.940346,19.61105 59.875,19.625 C58.86894,16.699447 55.920579,14.570284 52.8125,14.59375 L51.125,10.25 L53,10.1875 C52.725348,9.344616 52.5625,8.459455 52.5625,7.53125 C52.5625,5.817373 53.089535,4.207657 53.96875,2.84375 C53.875158,2.846258 53.781089,2.841233 53.6875,2.84375 Z M22.34375,30.0625 L27.875,34.40625 L18.3125,34.40625 L22.34375,30.0625 Z" id="Shape"></path>
            <path d="M62.016677,0.34194648 C65.9787805,0.34194648 69.1810285,3.56060379 69.1810285,7.51619274 C69.1810285,11.4717817 65.9787805,14.690439 62.016677,14.690439 C58.0545735,14.690439 54.8306154,11.4717817 54.8306154,7.51619274 C54.8306154,3.56060379 58.0328634,0.34194648 62.016677,0.34194648" id="Shape" transform="translate(62.005822, 7.516193) scale(-1, 1) rotate(-180.000000) translate(-62.005822, -7.516193) "></path>
        </g>
    </g>
</svg>